<?xml version="1.0" encoding="UTF-8"?>
<svg id="_圖層_1" data-name="圖層 1" xmlns="http://www.w3.org/2000/svg" viewBox="0 0 32 32">
  <defs>
    <style>
      .cls-1 {
        fill: #fff;
      }

      .cls-2 {
        fill: #978765;
      }
    </style>
  </defs>
  <rect class="cls-2" x="0" y="0" width="32" height="32" rx="16" ry="16"/>
  <g>
    <g>
      <ellipse class="cls-1" cx="2.7" cy="21.39" rx=".45" ry=".97"/>
      <ellipse class="cls-1" cx="2.7" cy="18.65" rx=".45" ry=".97"/>
      <ellipse class="cls-1" cx="2.7" cy="26.89" rx=".45" ry=".97"/>
      <ellipse class="cls-1" cx="2.7" cy="24.14" rx=".45" ry=".97"/>
    </g>
    <g>
      <g>
        <g>
          <path class="cls-1" d="m16.65,24.04c.74-.96,1.71-1.24,2.83-.89.97.31,1.7.91,2.29,1.68.49.65,1.17.95,1.99,1.05.02,0,.04.03.05.05-.06.06-.13.11-.21.18.83.19,1.06.11,1.93-.63-.08.55-.19,1.02-.59,1.42-.6.59-1.31.97-2.12,1.09-1.94.3-3.74-.03-5.39-.95-.31-.17-.6-.38-.85-.63-.13-.14-.25-.29-.34-.46-.13-.23-.18-.45-.15-.72.02-.17.07-.33.13-.49.05-.15.1-.29.21-.42.07-.1.15-.19.22-.29Z"/>
          <path class="cls-1" d="m15.35,24.04c-.74-.96-1.71-1.24-2.83-.89-.97.31-1.7.91-2.29,1.68-.49.65-1.17.95-1.99,1.05-.02,0-.04.03-.05.05.06.06.13.11.21.18-.83.19-1.06.11-1.93-.63.08.55.19,1.02.59,1.42.6.59,1.31.97,2.12,1.09,1.94.3,3.74-.03,5.39-.95.31-.17.6-.38.85-.63.13-.14.25-.29.34-.46.13-.23.18-.45.15-.72-.02-.17-.07-.33-.13-.49-.05-.15-.1-.29-.21-.42-.07-.1-.15-.19-.22-.29Z"/>
        </g>
        <g>
          <g>
            <path class="cls-1" d="m19.6,15.89c-1.7,1.59-1.7,4.17,0,5.76s4.47,1.59,6.17,0c.18-.17.34-.35.48-.54l-6.08-5.67c-.2.13-.4.28-.58.45Z"/>
            <path class="cls-1" d="m25.77,15.89c-1.04-.97-2.48-1.35-3.82-1.13l5.04,4.7c.23-1.26-.17-2.6-1.22-3.57Z"/>
            <path class="cls-1" d="m21.59,14.83c-.11.03-.22.06-.33.09l5.55,5.18c.04-.1.07-.21.1-.31l-5.32-4.96Z"/>
          </g>
          <g>
            <g>
              <ellipse class="cls-1" cx="11.88" cy="16.3" rx=".21" ry=".19"/>
              <ellipse class="cls-1" cx="11.92" cy="20.83" rx=".21" ry=".19"/>
              <path class="cls-1" d="m11.89,20.75s-.08.08-.13.12c-1.35,1.26-3.54,1.26-4.89,0-1.35-1.26-1.35-3.3,0-4.56s3.54-1.26,4.89,0c.02.02.04.04.07.07.03-.06.09-.1.15-.11-.03-.03-.06-.06-.08-.08-1.42-1.33-3.73-1.33-5.16,0-1.42,1.33-1.42,3.48,0,4.81,1.42,1.33,3.73,1.33,5.16,0,.04-.04.09-.08.13-.13-.06-.02-.12-.06-.13-.13Z"/>
            </g>
            <path class="cls-1" d="m12.4,21.48c1.7-1.59,1.7-4.17,0-5.76s-4.47-1.59-6.17,0-1.7,4.17,0,5.76,4.47,1.59,6.17,0Zm-6.01-5.61c1.62-1.51,4.24-1.51,5.85,0s1.62,3.95,0,5.46-4.24,1.51-5.85,0-1.62-3.95,0-5.46Z"/>
            <g>
              <path class="cls-1" d="m10.67,17.09c.26.21.39.47.43.78.07.59-.15,1.11-.53,1.57-.32.39-.72.68-1.23.84-.43.13-.85.14-1.25-.08-.02-.01-.04-.02-.05-.03.16-.09.32-.18.47-.28.48-.34.8-.79.97-1.33.2-.62.62-1.1,1.19-1.47Z"/>
              <path class="cls-1" d="m10.6,17.05c-.45.19-.8.48-1.07.85-.17.22-.29.47-.37.73-.19.58-.56,1.03-1.07,1.39-.13.09-.13.09-.24-.02-.26-.27-.35-.59-.33-.93.05-.78.47-1.37,1.12-1.83.39-.27.83-.43,1.32-.4.23.01.49.09.64.21Z"/>
            </g>
          </g>
        </g>
      </g>
      <g>
        <path class="cls-1" d="m26.4,11.68l-.11.22-.51,1.07c-2.55,1.1-9.78.99-9.78.99,0,0-7.23.12-9.78-.99l-.51-1.07-.11-.22c-3.42.4-5.6.99-5.6,1.65,0,1.2,7.16,2.17,16,2.17s16-.97,16-2.17c0-.66-2.17-1.25-5.6-1.65Z"/>
        <path class="cls-1" d="m16,10.96c3.97,0,7.6.2,10.4.52l2.86-5.99s-4.39-1.6-13.26-1.6-13.26,1.6-13.26,1.6l2.86,5.99c2.8-.33,6.43-.52,10.4-.52Zm11.41-5.63c1.09.26,1.63.45,1.63.45,0,0-.52.19-1.57.44-.13.03-.27.06-.42.1l-1.69-1.4c.82.14,1.51.28,2.05.41Zm-2.61-.5l1.89,1.56c-.12.02-.24.05-.36.07l-2.08-1.72c.19.03.37.05.55.08Zm-8.8-.62c1.03,0,2,.02,2.91.06,1.22.05,2.34.13,3.34.24l2.67,2.21c-1.6.25-3.68.49-6.23.59-.85.03-1.75.05-2.7.05-8.72,0-13.04-1.57-13.04-1.57,0,0,4.32-1.57,13.04-1.57Z"/>
        <path class="cls-1" d="m5.6,11.48l.11.22c2.73,1.15,10.3,1.03,10.3,1.03,0,0,7.56.12,10.3-1.03l.11-.22c-2.8-.33-6.43-.52-10.4-.52s-7.6.2-10.4.52Z"/>
      </g>
    </g>
  </g>
</svg>