<?xml version="1.0" encoding="UTF-8"?>
<svg id="_圖層_1" data-name="圖層 1" xmlns="http://www.w3.org/2000/svg" viewBox="0 0 100 77.11">
  <defs>
    <style>
      .cls-1 {
        fill: #cabc95;
      }
    </style>
  </defs>
  <g>
    <g>
      <ellipse class="cls-1" cx="24.22" cy="33.94" rx=".88" ry="1.87"/>
      <ellipse class="cls-1" cx="24.22" cy="28.61" rx=".88" ry="1.87"/>
      <ellipse class="cls-1" cx="24.22" cy="44.59" rx=".88" ry="1.87"/>
      <ellipse class="cls-1" cx="24.22" cy="39.27" rx=".88" ry="1.87"/>
    </g>
    <g>
      <g>
        <g>
          <path class="cls-1" d="m51.27,39.07c1.44-1.86,3.31-2.41,5.48-1.72,1.89.6,3.3,1.76,4.44,3.26.96,1.25,2.28,1.84,3.85,2.03.04,0,.07.06.1.1-.12.11-.25.22-.41.36,1.61.36,2.06.21,3.74-1.22-.15,1.06-.37,1.98-1.15,2.75-1.16,1.14-2.53,1.87-4.12,2.12-3.77.59-7.26-.06-10.45-1.84-.6-.34-1.17-.73-1.64-1.23-.25-.27-.48-.56-.65-.88-.25-.44-.36-.87-.28-1.4.05-.32.14-.64.25-.95.1-.29.2-.57.4-.82.14-.19.29-.37.43-.56Z"/>
          <path class="cls-1" d="m48.73,39.07c-1.44-1.86-3.31-2.41-5.48-1.72-1.89.6-3.3,1.76-4.44,3.26-.96,1.25-2.28,1.84-3.85,2.03-.04,0-.07.06-.1.1.12.11.25.22.41.36-1.61.36-2.06.21-3.74-1.22.15,1.06.37,1.98,1.15,2.75,1.16,1.14,2.53,1.87,4.12,2.12,3.77.59,7.26-.06,10.45-1.84.6-.34,1.17-.73,1.64-1.23.25-.27.48-.56.65-.88.25-.44.36-.87.28-1.4-.05-.32-.14-.64-.25-.95-.1-.29-.2-.57-.4-.82-.14-.19-.29-.37-.43-.56Z"/>
        </g>
        <g>
          <g>
            <path class="cls-1" d="m56.98,23.27c-3.31,3.08-3.31,8.08,0,11.17s8.67,3.08,11.97,0c.35-.33.66-.68.94-1.04l-11.79-11c-.39.26-.77.55-1.12.88Z"/>
            <path class="cls-1" d="m68.95,23.27c-2.02-1.88-4.8-2.61-7.41-2.2l9.77,9.11c.44-2.44-.34-5.03-2.36-6.92Z"/>
            <path class="cls-1" d="m60.84,21.21c-.22.05-.43.11-.65.18l10.77,10.04c.07-.2.14-.4.19-.6l-10.31-9.62Z"/>
          </g>
          <g>
            <g>
              <ellipse class="cls-1" cx="42.01" cy="24.06" rx=".4" ry=".37"/>
              <ellipse class="cls-1" cx="42.08" cy="32.85" rx=".4" ry=".37"/>
              <path class="cls-1" d="m42.02,32.7c-.08.08-.16.16-.25.24-2.62,2.44-6.86,2.44-9.48,0-2.62-2.44-2.62-6.4,0-8.84s6.86-2.44,9.48,0c.04.04.09.08.13.13.06-.11.17-.2.29-.21-.05-.05-.11-.11-.16-.16-2.76-2.58-7.24-2.58-10,0-2.76,2.58-2.76,6.75,0,9.33,2.76,2.58,7.24,2.58,10,0,.09-.08.17-.16.25-.24-.12-.03-.23-.11-.26-.24Z"/>
            </g>
            <path class="cls-1" d="m43.02,34.1c3.31-3.08,3.31-8.08,0-11.17s-8.66-3.08-11.97,0-3.31,8.08,0,11.17c3.31,3.08,8.66,3.08,11.97,0Zm-11.66-10.88c3.13-2.92,8.21-2.92,11.35,0s3.13,7.66,0,10.58-8.21,2.92-11.35,0-3.13-7.66,0-10.58Z"/>
            <g>
              <path class="cls-1" d="m39.67,25.59c.51.4.76.91.84,1.5.14,1.15-.29,2.15-1.02,3.04-.62.76-1.4,1.33-2.39,1.63-.83.25-1.64.28-2.43-.15-.04-.02-.08-.05-.1-.07.3-.18.62-.34.9-.54.94-.66,1.55-1.53,1.89-2.57.39-1.21,1.2-2.13,2.31-2.84Z"/>
              <path class="cls-1" d="m39.53,25.5c-.87.37-1.55.94-2.08,1.66-.32.44-.56.91-.72,1.42-.36,1.12-1.08,2.01-2.08,2.7-.25.18-.26.18-.47-.04-.49-.51-.68-1.14-.63-1.81.1-1.51.9-2.66,2.17-3.55.75-.53,1.6-.83,2.57-.78.45.02.95.18,1.24.41Z"/>
            </g>
          </g>
        </g>
      </g>
      <g>
        <path class="cls-1" d="m70.17,15.1l-.21.43-.99,2.08c-4.94,2.14-18.97,1.92-18.97,1.92,0,0-14.03.22-18.97-1.92l-.99-2.08-.21-.43c-6.64.77-10.86,1.92-10.86,3.2,0,2.33,13.89,4.21,31.03,4.21s31.03-1.89,31.03-4.21c0-1.28-4.21-2.43-10.86-3.2Z"/>
        <path class="cls-1" d="m50,0c-17.2,0-25.71,3.1-25.71,3.1l5.54,11.61.21.43c5.29,2.22,19.96,1.99,19.96,1.99,0,0,14.67.23,19.96-1.99l.21-.43,5.54-11.61s-8.51-3.1-25.71-3.1Zm-25.29,3.65S33.08.6,50,.6c2.01,0,3.89.04,5.65.12,2.37.1,4.53.26,6.48.46l5.18,4.28c-3.11.49-7.13.94-12.07,1.14-1.65.06-3.39.1-5.24.1-16.92,0-25.29-3.05-25.29-3.05Zm45.32,1.33l-4.03-3.33c.36.05.72.1,1.06.16l3.67,3.03c-.22.05-.46.09-.7.14Zm1.39-.29l-3.28-2.71c1.6.27,2.92.55,3.98.79,2.11.49,3.17.88,3.17.88,0,0-1.02.37-3.05.85-.26.06-.53.12-.82.19Z"/>
      </g>
    </g>
  </g>
  <g>
    <path class="cls-1" d="m7.69,61.43s.05.02.14.05c2.08.5,6.78-5.86,5.57-8.67-.18-.41-.43-.78-1.48-1-1.71-.39-4.43,1.51-6.62,4.47-3.72,4.97-5.59,12.18-2.72,14.85,3.01,2.78,9.01-2.85,11.64-5.93.14-.14.5-.32.75-.07.27.25.07.66-.07.8-2.3,2.74-8.17,9.99-12.73,5.75-4.34-4.04-1.41-11.61,2.12-16.34,2.21-2.97,4.84-5.11,7.16-4.59,1.3.3,2.42,1.12,2.92,2.28,1.55,3.65-3.26,10.18-6.12,9.49-.21-.05-.43-.14-.68-.32-.3-.18-.52-.55-.48-.75.02-.23.3-.23.59-.02Z"/>
    <path class="cls-1" d="m31.88,62.82c-.57,1.32-1.07,2.6-1.51,3.79h.11c2.19-.09,4.65-.73,5.66-1.51.16-.11.41-.21.66.07.25.27.09.62-.07.73-1,.78-2.78,1.53-4.91,1.73,2.14,2.62.09,8.35-1.83,9.22-.18.09-.37.14-.57.14-.48,0-1.16-.34-1.57-1.03-1-1.71-.3-5.13,1.3-9.72.21-.59.68-1.92.91-2.56-1.57,1.78-3.45,3.35-4.72,3.74,2.26,2.49.57,8.21-1.21,9.4-.23.16-.48.27-.78.27-.43,0-1.12-.32-1.51-.98-1.03-1.71-.23-5.29,1.37-9.97.37-1,.75-2.08,1.21-3.19-.94.68-2.14,1.28-3.81,1.8-.02.02-.07.02-.11.05.02.07.02.14.02.21,0,2.49-1.73,5.95-4.15,5.95-.82,0-1.78-.46-2.33-1.39-1.07-1.8-.27-4.47.78-5.89.11-.16.43-.07.71.18.27.25.41.59.3.73-1.03,1.42-1.44,4.08-.91,4.97.05.09.14.3.82.3,1.71,0,3.38-2.65,3.65-4.86l-.48.07c-.87.09-1.85-.07-2.46-1.05-.82-1.25.16-2.17,1.41-2.17.78,0,1.67.43,2.21,1.32.07.14.14.25.18.39,3.03-.98,4.24-1.69,5.2-3.08,1-2.26,2.17-4.63,3.47-7,.09-.18.41-.11.68.11.27.25.43.59.34.75-2.33,4.22-4.18,8.42-5.45,12.02,1.57-.46,3.74-1.92,5.91-4.75.52-.66,1.05-1.42,1.55-2.24.78-1.64,1.64-3.33,2.58-5.04.07-.14.32-.14.62.07.3.23.5.59.41.8-.8,1.94-1.69,3.63-2.58,5.07-.39.87-.78,1.71-1.12,2.53Zm-12.48.87c-.05-.23-.14-.41-.18-.5-.05-.05-.07-.23-.71-.23-.87,0-1.28.64-1.23.96.14.07.48.11.94.07.34-.02.66-.07,1-.14.05-.02.14-.02.18-.05v-.11Zm3.29,12.32h.02c1.67,0,3.33-5.98,2.21-7.99-.14-.23-.21-.39-.78-.41h-.05c-1.37,4.13-1.8,7.39-1.41,8.4Zm6.02-.11h.07c1.69,0,3.58-5.86,2.51-7.8-.14-.21-.16-.27-.48-.34-.07-.02-.18-.05-.3-.05h-.14c-.07,0-.21-.05-.32-.11-1.41,4.15-1.76,7.37-1.35,8.31Z"/>
    <path class="cls-1" d="m41.5,67.98c-.98-.41-4.61,1.51-4.61,2.85,0,.66.23.82.3.89,1.37,1.03,7.03-.39,7.89-3.99.75-3.08-3.95-1.67-6.91-4.22-1.94-1.69-1.6-4.02,1.05-8.15.23-.37.48-.71.71-1.03,3.13-4.18,6.85-4.93,9.31-2.62,2.19,2.03,2.1,5.2-.25,8.28-.46.64-1.69,2.35-3.1,1.16-.27-.23-.46-.57-.37-.75.07-.16.27-.16.57.05.39.05,1.41-.73,1.92-1.37,2.42-3.22,1.78-5.93.82-6.82-1.21-1.12-4.68-1.3-7.89,3.01-.23.32-.46.64-.68,1-2.83,4.4-2.26,6.14-1.71,6.64,1,.89,8.67,1.25,7.62,5.59-.91,3.67-6.46,5.95-9.15,3.95-.84-.64-1.19-1.51-1.19-2.26,0-1.73,4.4-4.11,5.96-2.88.3.23.46.59.37.75-.09.18-.41.09-.64-.09Z"/>
    <path class="cls-1" d="m49.1,68.44c0,.73.23.84.39.93.27.16.84.32,1.51.32,3.01,0,5.16-1.73,7.1-4.27.73-1.6,2.21-2.83,4.13-2.83.46,0,.82.05,1.19.23.57.25,1.05.82,1.14,1.28.32,1.64-2.83,4.24-5.7,2.92-.14.48-.23.96-.23,1.42,0,.52.18.64.39.75.27.18.84.34,1.51.34,3.15,0,5.48-1.69,7.48-4.4.11-.16.41-.3.68-.05.27.25.21.57.09.73-2.03,2.74-4.18,4.81-7.6,4.81-.75,0-1.48-.16-2.17-.55-.91-.55-1.44-1.46-1.46-2.24-1.57,1.71-3.42,2.94-5.89,2.94-.75,0-1.46-.11-2.17-.55-.98-.59-1.46-1.57-1.46-2.44,0-.64.16-1.28.41-1.89.87-2.08,2.9-4.04,5.07-4.04.59,0,1.03.07,1.53.37.71.41.91,1.1.91,1.44-.05,1.71-3.99,5.04-6.59,3.42-.16.48-.25.94-.25,1.35Zm5.75-5.41c-.11-.05-.39-.07-.68-.07-1.69,0-3.61,1.6-4.52,3.42,1.71.46,5.11-2.05,5.2-3.35Zm8.62.71c-.11-.02-.34-.05-.59-.05-1.62,0-3.01,1.07-3.74,2.53,1.94.43,4.27-1.44,4.34-2.49Z"/>
    <path class="cls-1" d="m76.02,51.87c.98,1.71-1.32,5.82-3.24,10.27-.11.23-.23.48-.32.71,1-.27,2.12-.78,3.26-1.39,4.72-2.51,9.63-7.28,9.31-8.6-.14-.21-.21-.52.02-.55.21-.05.55.16.78.46,1.64,2.33-4.4,7.16-9.22,9.74-1.35.71-2.28,1.19-3.45,1.46l.02.02c1.28,1.16,1.55,2.97,2.28,4.33.41.8.82,1.51,1.23,1.96.62.73,1.71,1.92,3.49.5.16-.11.43-.3.68-.02.25.27.05.48-.09.62-1.48,1.37-3.33,1.85-4.72.23-.64-.73-1.1-1.57-1.53-2.4-.8-1.55-1.51-3.97-2.14-4.56-.16-.16-.34-.27-.59-.34-1.51,3.33-2.94,6.25-2.94,7.14,0,.25-.23.3-.52.11-.3-.18-.55-.52-.55-.75,0-1.19,1.35-3.88,2.83-7.05-.02,0-.02-.02-.02-.02-.21-.32-.16-.59.07-.59h.23c.27-.62.57-1.23.84-1.87,1.89-4.36,3.7-8.6,3.4-9.45-.14-.27-.11-.52.14-.52.25.02.59.27.75.57Z"/>
    <path class="cls-1" d="m83.39,68.44c0,.84.75,1.03,1.89,1.03,3.15,0,5.57-1.69,7.58-4.4.11-.16.32-.23.59.02.27.25.23.52.11.68-2.03,2.74-4.2,4.77-7.62,4.77-1.94,0-3.63-1.07-3.63-2.74,0-.64.16-1.28.41-1.89.87-2.08,2.9-4.04,5.07-4.04.59,0,1.03.07,1.53.37.71.41.91,1.1.91,1.44-.05,1.71-3.99,5.04-6.59,3.42-.16.48-.25.94-.25,1.35Zm5.75-5.41c-.11-.05-.39-.07-.68-.07-1.69,0-3.61,1.6-4.52,3.42,1.71.46,5.11-2.05,5.2-3.35Z"/>
    <path class="cls-1" d="m94.37,63.03c1.25-1.76,2.51-2.72,5.18-1.1.32.18.52.48.43.66-.07.16-.41.16-.73-.05-1.51-.91-2.97.09-3.88,1.41-.64.91-.94,1.37-1.69,3.01-.43.96-.89,2.05-1.37,3.29-.07.18-.34.16-.62-.02-.3-.23-.52-.59-.43-.8,0,0,.55-1.55,1.1-3.29.57-1.78.71-3.03.66-3.65-.07-.11-.11-.34-.05-.46.11-.16.41-.05.68.21.64.59.46,1,.43,1.16.14-.18.18-.25.27-.39Z"/>
  </g>
</svg>