<?xml version="1.0" encoding="UTF-8"?>
<svg id="_圖層_1" data-name="圖層 1" xmlns="http://www.w3.org/2000/svg" viewBox="0 0 190 41.37">
  <defs>
    <style>
      .cls-1 {
        fill: #fff;
      }
    </style>
  </defs>
  <g>
    <g>
      <ellipse class="cls-1" cx="4.01" cy="25.95" rx=".67" ry="1.43"/>
      <ellipse class="cls-1" cx="4.01" cy="21.88" rx=".67" ry="1.43"/>
      <ellipse class="cls-1" cx="4.01" cy="34.1" rx=".67" ry="1.43"/>
      <ellipse class="cls-1" cx="4.01" cy="30.03" rx=".67" ry="1.43"/>
    </g>
    <g>
      <g>
        <g>
          <path class="cls-1" d="m24.7,29.88c1.1-1.42,2.53-1.84,4.19-1.32,1.44.46,2.52,1.35,3.4,2.49.73.96,1.74,1.41,2.95,1.55.03,0,.05.05.08.08-.09.08-.19.17-.31.27,1.23.28,1.58.16,2.86-.94-.11.81-.28,1.51-.88,2.1-.89.87-1.94,1.43-3.15,1.62-2.88.45-5.55-.04-7.99-1.41-.46-.26-.9-.56-1.26-.94-.19-.2-.37-.43-.5-.68-.19-.34-.27-.67-.22-1.07.03-.25.11-.49.19-.72.08-.22.15-.43.31-.63.11-.14.22-.28.33-.43Z"/>
          <path class="cls-1" d="m22.76,29.88c-1.1-1.42-2.53-1.84-4.19-1.32-1.44.46-2.52,1.35-3.4,2.49-.73.96-1.74,1.41-2.95,1.55-.03,0-.05.05-.08.08.09.08.19.17.31.27-1.23.28-1.58.16-2.86-.94.11.81.28,1.51.88,2.1.89.87,1.94,1.43,3.15,1.62,2.88.45,5.55-.04,7.99-1.41.46-.26.9-.56,1.26-.94.19-.2.37-.43.5-.68.19-.34.27-.67.22-1.07-.03-.25-.11-.49-.19-.72-.08-.22-.15-.43-.31-.63-.11-.14-.22-.28-.33-.43Z"/>
        </g>
        <g>
          <g>
            <path class="cls-1" d="m29.06,17.79c-2.53,2.36-2.53,6.18,0,8.54s6.63,2.36,9.15,0c.27-.25.51-.52.72-.8l-9.02-8.41c-.3.2-.59.42-.86.67Z"/>
            <path class="cls-1" d="m38.22,17.79c-1.54-1.44-3.67-2-5.67-1.68l7.47,6.97c.34-1.86-.26-3.85-1.8-5.29Z"/>
            <path class="cls-1" d="m32.02,16.22c-.17.04-.33.09-.49.14l8.23,7.68c.06-.15.1-.31.15-.46l-7.89-7.36Z"/>
          </g>
          <g>
            <g>
              <ellipse class="cls-1" cx="17.62" cy="18.4" rx=".3" ry=".28"/>
              <ellipse class="cls-1" cx="17.67" cy="25.12" rx=".3" ry=".28"/>
              <path class="cls-1" d="m17.62,25c-.06.06-.12.12-.19.19-2,1.87-5.24,1.87-7.25,0-2-1.87-2-4.89,0-6.76s5.24-1.87,7.25,0c.03.03.07.06.1.1.04-.09.13-.15.23-.16-.04-.04-.08-.08-.12-.12-2.11-1.97-5.53-1.97-7.64,0-2.11,1.97-2.11,5.16,0,7.13,2.11,1.97,5.53,1.97,7.64,0,.07-.06.13-.12.19-.19-.09-.02-.17-.09-.2-.19Z"/>
            </g>
            <path class="cls-1" d="m18.39,26.08c2.53-2.36,2.53-6.18,0-8.54s-6.63-2.36-9.15,0c-2.53,2.36-2.53,6.18,0,8.54s6.63,2.36,9.15,0Zm-8.92-8.32c2.4-2.24,6.28-2.24,8.68,0,2.4,2.24,2.4,5.86,0,8.09s-6.28,2.24-8.68,0c-2.4-2.24-2.4-5.86,0-8.09Z"/>
            <g>
              <path class="cls-1" d="m15.83,19.57c.39.31.58.7.64,1.15.11.88-.22,1.64-.78,2.32-.47.58-1.07,1.01-1.82,1.25-.63.19-1.26.21-1.86-.11-.03-.02-.06-.04-.08-.05.23-.14.47-.26.69-.42.72-.5,1.19-1.17,1.45-1.97.3-.92.92-1.63,1.77-2.18Z"/>
              <path class="cls-1" d="m15.72,19.5c-.67.29-1.18.72-1.59,1.27-.25.33-.43.7-.55,1.08-.28.86-.83,1.53-1.59,2.07-.19.13-.2.13-.36-.03-.38-.39-.52-.87-.49-1.38.08-1.16.69-2.04,1.66-2.72.58-.4,1.23-.63,1.96-.6.34.02.73.14.95.31Z"/>
            </g>
          </g>
        </g>
      </g>
      <g>
        <path class="cls-1" d="m39.15,11.54l-.16.33-.76,1.59c-3.78,1.64-14.51,1.47-14.51,1.47,0,0-10.73.17-14.51-1.47l-.76-1.59-.16-.33c-5.08.59-8.3,1.47-8.3,2.45,0,1.78,10.62,3.22,23.73,3.22s23.73-1.44,23.73-3.22c0-.98-3.22-1.86-8.3-2.45Z"/>
        <path class="cls-1" d="m23.73,10.47c5.89,0,11.28.29,15.42.77l4.23-8.88S36.88,0,23.73,0,4.07,2.37,4.07,2.37l4.23,8.88c4.15-.48,9.53-.77,15.43-.77ZM40.64,2.12c1.62.38,2.42.67,2.42.67,0,0-.78.28-2.33.65-.2.05-.41.09-.63.14l-2.51-2.07c1.22.21,2.23.42,3.04.61Zm-3.87-.74l2.81,2.32c-.17.04-.35.07-.54.11l-3.08-2.55c.28.04.55.08.81.12Zm-13.04-.92c1.53,0,2.97.03,4.32.09,1.82.08,3.47.2,4.95.35l3.96,3.27c-2.38.38-5.46.72-9.23.87-1.26.05-2.59.08-4,.08C10.79,5.12,4.39,2.79,4.39,2.79c0,0,6.4-2.33,19.34-2.33Z"/>
        <path class="cls-1" d="m8.3,11.25l.16.33c4.05,1.7,15.27,1.52,15.27,1.52,0,0,11.22.18,15.27-1.52l.16-.33c-4.15-.48-9.53-.77-15.42-.77s-11.28.29-15.43.77Z"/>
      </g>
    </g>
  </g>
  <g>
    <path class="cls-1" d="m59.72,19.24s.06.03.19.06c2.93.71,9.56-8.28,7.86-12.24-.26-.58-.61-1.1-2.09-1.42-2.41-.55-6.25,2.12-9.34,6.31-5.25,7.02-7.89,17.2-3.83,20.97,4.25,3.93,12.72-4.03,16.42-8.37.19-.19.71-.45,1.06-.1.39.35.1.93-.1,1.13-3.25,3.86-11.53,14.11-17.97,8.12-6.12-5.7-2-16.39,2.99-23.06,3.12-4.19,6.83-7.21,10.11-6.47,1.84.42,3.41,1.58,4.12,3.22,2.19,5.15-4.61,14.36-8.63,13.4-.29-.06-.61-.19-.97-.45-.42-.26-.74-.77-.68-1.06.03-.32.42-.32.84-.03Z"/>
    <path class="cls-1" d="m93.86,21.21c-.81,1.87-1.51,3.67-2.13,5.35h.16c3.09-.13,6.57-1.03,7.99-2.13.23-.16.58-.29.93.1.35.39.13.87-.1,1.03-1.42,1.1-3.93,2.16-6.92,2.45,3.03,3.7.13,11.79-2.58,13.01-.26.13-.52.19-.8.19-.68,0-1.64-.48-2.22-1.45-1.42-2.42-.42-7.25,1.84-13.72.29-.84.97-2.71,1.29-3.61-2.22,2.51-4.86,4.73-6.67,5.28,3.19,3.51.8,11.59-1.71,13.27-.32.23-.68.39-1.1.39-.61,0-1.58-.45-2.13-1.38-1.45-2.42-.32-7.47,1.93-14.07.52-1.42,1.06-2.93,1.71-4.51-1.32.97-3.03,1.8-5.38,2.54-.03.03-.1.03-.16.06.03.1.03.19.03.29,0,3.51-2.45,8.4-5.86,8.4-1.16,0-2.51-.64-3.28-1.96-1.51-2.54-.39-6.31,1.1-8.31.16-.23.61-.1,1,.26.39.35.58.84.42,1.03-1.45,2-2.03,5.76-1.29,7.02.06.13.19.42,1.16.42,2.42,0,4.77-3.74,5.15-6.86l-.68.1c-1.22.13-2.61-.1-3.48-1.48-1.16-1.77.23-3.06,2-3.06,1.09,0,2.35.61,3.12,1.87.1.19.19.35.26.55,4.28-1.38,5.99-2.38,7.34-4.35,1.42-3.19,3.06-6.54,4.89-9.89.13-.26.58-.16.97.16.39.35.61.84.48,1.06-3.28,5.96-5.89,11.88-7.7,16.97,2.22-.64,5.28-2.7,8.34-6.7.74-.93,1.48-2,2.19-3.16,1.09-2.32,2.32-4.7,3.64-7.12.1-.19.45-.19.87.1.42.32.71.84.58,1.13-1.13,2.74-2.38,5.12-3.64,7.15-.55,1.22-1.09,2.41-1.58,3.57Zm-17.62,1.22c-.06-.32-.19-.58-.26-.71-.06-.06-.1-.32-1-.32-1.22,0-1.8.9-1.74,1.35.19.1.68.16,1.32.1.48-.03.93-.1,1.42-.19.06-.03.19-.03.26-.06v-.16Zm4.64,17.39h.03c2.35,0,4.7-8.44,3.12-11.27-.19-.32-.29-.55-1.09-.58h-.06c-1.93,5.83-2.54,10.43-2,11.85Zm8.5-.16h.1c2.38,0,5.06-8.28,3.54-11.01-.19-.29-.23-.39-.68-.48-.1-.03-.26-.06-.42-.06h-.19c-.1,0-.29-.06-.45-.16-2,5.86-2.48,10.4-1.9,11.72Z"/>
    <path class="cls-1" d="m107.44,28.48c-1.38-.58-6.51,2.13-6.51,4.03,0,.93.32,1.16.42,1.26,1.93,1.45,9.92-.55,11.14-5.64,1.06-4.35-5.57-2.35-9.76-5.96-2.74-2.38-2.25-5.67,1.48-11.5.32-.52.68-1,1-1.45,4.41-5.89,9.66-6.96,13.14-3.7,3.09,2.87,2.96,7.34-.35,11.69-.64.9-2.38,3.32-4.38,1.64-.39-.32-.64-.81-.52-1.06.1-.23.39-.23.8.06.55.06,2-1.03,2.71-1.93,3.41-4.54,2.51-8.37,1.16-9.63-1.71-1.58-6.6-1.84-11.14,4.25-.32.45-.64.9-.97,1.42-3.99,6.22-3.19,8.66-2.42,9.37,1.42,1.26,12.24,1.77,10.76,7.89-1.29,5.18-9.11,8.4-12.91,5.57-1.19-.9-1.67-2.13-1.67-3.19,0-2.45,6.22-5.8,8.41-4.06.42.32.64.84.52,1.06-.13.26-.58.13-.9-.13Z"/>
    <path class="cls-1" d="m118.16,29.13c0,1.03.32,1.19.55,1.32.39.23,1.19.45,2.13.45,4.25,0,7.28-2.45,10.02-6.02,1.03-2.25,3.12-3.99,5.83-3.99.64,0,1.16.06,1.67.32.81.35,1.48,1.16,1.61,1.8.45,2.32-3.99,5.99-8.05,4.12-.19.68-.32,1.35-.32,2,0,.74.26.9.55,1.06.39.26,1.19.48,2.13.48,4.44,0,7.73-2.38,10.56-6.22.16-.23.58-.42.97-.06.39.35.29.8.13,1.03-2.87,3.86-5.89,6.8-10.72,6.8-1.06,0-2.09-.23-3.06-.77-1.29-.77-2.03-2.06-2.06-3.16-2.22,2.42-4.83,4.15-8.31,4.15-1.06,0-2.06-.16-3.06-.77-1.38-.84-2.06-2.22-2.06-3.45,0-.9.23-1.8.58-2.67,1.22-2.93,4.09-5.7,7.15-5.7.84,0,1.45.1,2.16.52,1,.58,1.29,1.55,1.29,2.03-.06,2.42-5.64,7.12-9.31,4.83-.23.68-.35,1.32-.35,1.9Zm8.12-7.63c-.16-.06-.55-.1-.97-.1-2.38,0-5.09,2.25-6.38,4.83,2.42.64,7.21-2.9,7.34-4.73Zm12.17,1c-.16-.03-.48-.06-.84-.06-2.29,0-4.25,1.51-5.28,3.57,2.74.61,6.02-2.03,6.12-3.51Z"/>
    <path class="cls-1" d="m156.16,5.75c1.38,2.41-1.87,8.21-4.57,14.49-.16.32-.32.68-.45,1,1.42-.39,2.99-1.1,4.61-1.96,6.67-3.54,13.59-10.27,13.14-12.14-.19-.29-.29-.74.03-.77.29-.06.77.23,1.09.64,2.32,3.28-6.22,10.11-13.01,13.75-1.9,1-3.22,1.68-4.86,2.06l.03.03c1.8,1.64,2.19,4.19,3.22,6.12.58,1.13,1.16,2.13,1.74,2.77.87,1.03,2.42,2.7,4.93.71.23-.16.61-.42.97-.03.35.39.06.68-.13.87-2.09,1.93-4.7,2.61-6.67.32-.9-1.03-1.55-2.22-2.16-3.38-1.13-2.19-2.13-5.6-3.03-6.44-.23-.23-.48-.39-.84-.48-2.13,4.7-4.15,8.82-4.15,10.08,0,.35-.32.42-.74.16-.42-.26-.77-.74-.77-1.06,0-1.67,1.9-5.47,3.99-9.95-.03,0-.03-.03-.03-.03-.29-.45-.23-.84.1-.84h.32c.39-.87.81-1.74,1.19-2.64,2.67-6.15,5.22-12.14,4.8-13.33-.19-.39-.16-.74.19-.74.35.03.84.39,1.06.81Z"/>
    <path class="cls-1" d="m166.56,29.13c0,1.19,1.06,1.45,2.67,1.45,4.44,0,7.86-2.38,10.69-6.22.16-.23.45-.32.84.03.39.35.32.74.16.97-2.87,3.86-5.93,6.73-10.76,6.73-2.74,0-5.12-1.51-5.12-3.86,0-.9.23-1.8.58-2.67,1.22-2.93,4.09-5.7,7.15-5.7.84,0,1.45.1,2.16.52,1,.58,1.29,1.55,1.29,2.03-.06,2.42-5.64,7.12-9.31,4.83-.23.68-.35,1.32-.35,1.9Zm8.12-7.63c-.16-.06-.55-.1-.97-.1-2.38,0-5.09,2.25-6.38,4.83,2.42.64,7.21-2.9,7.34-4.73Z"/>
    <path class="cls-1" d="m182.05,21.5c1.77-2.48,3.54-3.83,7.31-1.55.45.26.74.68.61.93-.1.23-.58.23-1.03-.06-2.13-1.29-4.19.13-5.48,2-.9,1.29-1.32,1.93-2.38,4.25-.61,1.35-1.26,2.9-1.93,4.64-.1.26-.48.23-.87-.03-.42-.32-.74-.84-.61-1.13,0,0,.77-2.19,1.55-4.64.8-2.51,1-4.28.93-5.15-.1-.16-.16-.48-.06-.64.16-.23.58-.06.97.29.9.84.64,1.42.61,1.64.19-.26.26-.35.39-.55Z"/>
  </g>
</svg>